<?xml version="1.0" encoding="UTF-8"?>
<svg xmlns="http://www.w3.org/2000/svg" xmlns:xlink="http://www.w3.org/1999/xlink" fill-opacity="1" color-rendering="auto" color-interpolation="auto" stroke="black" text-rendering="auto" stroke-linecap="square" width="372" stroke-miterlimit="10" stroke-opacity="1" shape-rendering="auto" fill="black" stroke-dasharray="none" font-weight="normal" stroke-width="1" height="529" font-family="'Dialog'" font-style="normal" stroke-linejoin="miter" font-size="12" stroke-dashoffset="0" image-rendering="auto">
  <!--Generated by ySVG-->
  <defs id="genericDefs"/>
  <g>
    <defs id="defs1">
      <linearGradient x1="319" gradientUnits="userSpaceOnUse" x2="557" y1="129" y2="177" id="linearGradient1" spreadMethod="pad">
        <stop stop-opacity="1" stop-color="rgb(232,238,247)" offset="0%"/>
        <stop stop-opacity="1" stop-color="rgb(183,201,227)" offset="100%"/>
      </linearGradient>
      <linearGradient x1="331" gradientUnits="userSpaceOnUse" x2="545" y1="372" y2="429" id="linearGradient2" spreadMethod="pad">
        <stop stop-opacity="1" stop-color="rgb(232,238,247)" offset="0%"/>
        <stop stop-opacity="1" stop-color="rgb(183,201,227)" offset="100%"/>
      </linearGradient>
      <linearGradient x1="319" gradientUnits="userSpaceOnUse" x2="557" y1="42" y2="90" id="linearGradient3" spreadMethod="pad">
        <stop stop-opacity="1" stop-color="rgb(232,238,247)" offset="0%"/>
        <stop stop-opacity="1" stop-color="rgb(183,201,227)" offset="100%"/>
      </linearGradient>
      <linearGradient x1="319" gradientUnits="userSpaceOnUse" x2="557" y1="459" y2="507" id="linearGradient4" spreadMethod="pad">
        <stop stop-opacity="1" stop-color="rgb(232,238,247)" offset="0%"/>
        <stop stop-opacity="1" stop-color="rgb(183,201,227)" offset="100%"/>
      </linearGradient>
      <linearGradient x1="319" gradientUnits="userSpaceOnUse" x2="557" y1="216" y2="264" id="linearGradient5" spreadMethod="pad">
        <stop stop-opacity="1" stop-color="rgb(232,238,247)" offset="0%"/>
        <stop stop-opacity="1" stop-color="rgb(183,201,227)" offset="100%"/>
      </linearGradient>
      <linearGradient x1="319" gradientUnits="userSpaceOnUse" x2="557" y1="294" y2="342" id="linearGradient6" spreadMethod="pad">
        <stop stop-opacity="1" stop-color="rgb(232,238,247)" offset="0%"/>
        <stop stop-opacity="1" stop-color="rgb(183,201,227)" offset="100%"/>
      </linearGradient>
      <clipPath clipPathUnits="userSpaceOnUse" id="clipPath1">
        <path d="M0 0 L372 0 L372 529 L0 529 L0 0 Z"/>
      </clipPath>
      <clipPath clipPathUnits="userSpaceOnUse" id="clipPath2">
        <path d="M304 -7 L676 -7 L676 522 L304 522 L304 -7 Z"/>
      </clipPath>
    </defs>
    <g fill="url(#linearGradient1)" stroke-miterlimit="1.45" transform="matrix(1,0,0,1,-304,7)" stroke-linecap="butt" stroke="url(#linearGradient1)">
      <path d="M319 129 L557 129 L557 177 L319 177 Z" clip-path="url(#clipPath2)" stroke="none"/>
      <path fill="none" d="M319 129 L557 129 L557 177 L319 177 Z" clip-path="url(#clipPath2)" stroke="black"/>
    </g>
    <g font-family="sans-serif" transform="matrix(1,0,0,1,-304,7)">
      <text x="351.5391" xml:space="preserve" y="157.4209" clip-path="url(#clipPath2)" stroke="none">Eliminering av avvikande data</text>
    </g>
    <g fill="url(#linearGradient2)" stroke-miterlimit="1.45" transform="matrix(1,0,0,1,-304,7)" stroke-linecap="butt" stroke="url(#linearGradient2)">
      <path d="M438 372 L545 400.5 L438 429 L331 400.5 Z" clip-path="url(#clipPath2)" stroke="none"/>
      <path fill="none" d="M438 372 L545 400.5 L438 429 L331 400.5 Z" clip-path="url(#clipPath2)" stroke="black"/>
    </g>
    <g font-family="sans-serif" transform="matrix(1,0,0,1,-304,7)">
      <text x="395.9561" xml:space="preserve" y="404.9209" clip-path="url(#clipPath2)" stroke="none">Fel identifierat</text>
    </g>
    <g fill="url(#linearGradient3)" stroke-miterlimit="1.45" transform="matrix(1,0,0,1,-304,7)" stroke-linecap="butt" stroke="url(#linearGradient3)">
      <path d="M319 42 L557 42 L557 90 L319 90 Z" clip-path="url(#clipPath2)" stroke="none"/>
      <path fill="none" d="M319 42 L557 42 L557 90 L319 90 Z" clip-path="url(#clipPath2)" stroke="black"/>
    </g>
    <g font-family="sans-serif" transform="matrix(1,0,0,1,-304,7)">
      <text x="375.6182" xml:space="preserve" y="70.4209" clip-path="url(#clipPath2)" stroke="none">Insamling av m채tdata</text>
    </g>
    <g fill="url(#linearGradient4)" stroke-miterlimit="1.45" transform="matrix(1,0,0,1,-304,7)" stroke-linecap="butt" stroke="url(#linearGradient4)">
      <path d="M319 459 L557 459 L557 507 L319 507 Z" clip-path="url(#clipPath2)" stroke="none"/>
      <path fill="none" d="M319 459 L557 459 L557 507 L319 507 Z" clip-path="url(#clipPath2)" stroke="black"/>
    </g>
    <g font-family="sans-serif" transform="matrix(1,0,0,1,-304,7)">
      <text x="380.5723" xml:space="preserve" y="487.4209" clip-path="url(#clipPath2)" stroke="none">Ers채tt eller reparera</text>
    </g>
    <g fill="url(#linearGradient5)" stroke-miterlimit="1.45" transform="matrix(1,0,0,1,-304,7)" stroke-linecap="butt" stroke="url(#linearGradient5)">
      <path d="M319 216 L557 216 L557 264 L319 264 Z" clip-path="url(#clipPath2)" stroke="none"/>
      <path fill="none" d="M319 216 L557 216 L557 264 L319 264 Z" clip-path="url(#clipPath2)" stroke="black"/>
    </g>
    <g font-family="sans-serif" transform="matrix(1,0,0,1,-304,7)">
      <text x="374.7305" xml:space="preserve" y="244.4209" clip-path="url(#clipPath2)" stroke="none">Nedbrytningsprognos</text>
    </g>
    <g fill="url(#linearGradient6)" stroke-miterlimit="1.45" transform="matrix(1,0,0,1,-304,7)" stroke-linecap="butt" stroke="url(#linearGradient6)">
      <path d="M319 294 L557 294 L557 342 L319 342 Z" clip-path="url(#clipPath2)" stroke="none"/>
      <path fill="none" d="M319 294 L557 294 L557 342 L319 342 Z" clip-path="url(#clipPath2)" stroke="black"/>
    </g>
    <g font-family="sans-serif" transform="matrix(1,0,0,1,-304,7)">
      <text x="335.3408" xml:space="preserve" y="322.4209" clip-path="url(#clipPath2)" stroke="none">Uppskattning av 책terst책ende livstid</text>
    </g>
    <g stroke-linecap="butt" transform="matrix(1,0,0,1,-304,7)" stroke-miterlimit="1.45">
      <path fill="none" d="M545.0084 400.5 L661 400.5 L661 8 L438 8 L438 34.0127" clip-path="url(#clipPath2)"/>
    </g>
    <g stroke-linecap="butt" transform="matrix(1,0,0,1,-304,7)" stroke-miterlimit="1.45">
      <path d="M438 42.0127 L443 30.0127 L438 33.0127 L433 30.0127 Z" clip-path="url(#clipPath2)" stroke="none"/>
      <text x="557.125" xml:space="preserve" y="393.9395" font-family="sans-serif" clip-path="url(#clipPath2)" stroke="none">Nej</text>
      <path fill="none" d="M438 90.0015 L438 120.9757" clip-path="url(#clipPath2)"/>
      <path d="M438 128.9756 L443 116.9756 L438 119.9756 L433 116.9756 Z" clip-path="url(#clipPath2)" stroke="none"/>
      <path fill="none" d="M438 428.9802 L438 451.0234" clip-path="url(#clipPath2)"/>
      <path d="M438 459.0234 L443 447.0234 L438 450.0234 L433 447.0234 Z" clip-path="url(#clipPath2)" stroke="none"/>
      <text x="442" xml:space="preserve" y="448.4209" font-family="sans-serif" clip-path="url(#clipPath2)" stroke="none">Ja</text>
      <path fill="none" d="M438 177.0015 L438 207.9757" clip-path="url(#clipPath2)"/>
      <path d="M438 215.9757 L443 203.9757 L438 206.9757 L433 203.9757 Z" clip-path="url(#clipPath2)" stroke="none"/>
      <path fill="none" d="M438 264.0322 L438 285.9938" clip-path="url(#clipPath2)"/>
      <path d="M438 293.9938 L443 281.9938 L438 284.9938 L433 281.9938 Z" clip-path="url(#clipPath2)" stroke="none"/>
      <path fill="none" d="M438 341.9685 L438 364.0059" clip-path="url(#clipPath2)"/>
      <path d="M438 372.0059 L443 360.0059 L438 363.0059 L433 360.0059 Z" clip-path="url(#clipPath2)" stroke="none"/>
    </g>
  </g>
</svg>
