<?xml version="1.0" encoding="UTF-8"?>
<svg xmlns="http://www.w3.org/2000/svg" xmlns:xlink="http://www.w3.org/1999/xlink" fill-opacity="1" color-rendering="auto" color-interpolation="auto" stroke="black" text-rendering="auto" stroke-linecap="square" width="298" stroke-miterlimit="10" stroke-opacity="1" shape-rendering="auto" fill="black" stroke-dasharray="none" font-weight="normal" stroke-width="1" height="560" font-family="'Dialog'" font-style="normal" stroke-linejoin="miter" font-size="12" stroke-dashoffset="0" image-rendering="auto">
  <!--Generated by ySVG-->
  <defs id="genericDefs"/>
  <g>
    <defs id="defs1">
      <linearGradient x1="297" gradientUnits="userSpaceOnUse" x2="417" y1="88.25" y2="137" id="linearGradient1" spreadMethod="pad">
        <stop stop-opacity="1" stop-color="rgb(232,238,247)" offset="0%"/>
        <stop stop-opacity="1" stop-color="rgb(183,201,227)" offset="100%"/>
      </linearGradient>
      <linearGradient x1="249.9131" gradientUnits="userSpaceOnUse" x2="464.0869" y1="155.0996" y2="197.0254" id="linearGradient2" spreadMethod="pad">
        <stop stop-opacity="1" stop-color="rgb(232,238,247)" offset="0%"/>
        <stop stop-opacity="1" stop-color="rgb(183,201,227)" offset="100%"/>
      </linearGradient>
      <linearGradient x1="249.9131" gradientUnits="userSpaceOnUse" x2="464.0869" y1="215.125" y2="257.0508" id="linearGradient3" spreadMethod="pad">
        <stop stop-opacity="1" stop-color="rgb(232,238,247)" offset="0%"/>
        <stop stop-opacity="1" stop-color="rgb(183,201,227)" offset="100%"/>
      </linearGradient>
      <linearGradient x1="249.9131" gradientUnits="userSpaceOnUse" x2="464.0869" y1="275.1504" y2="317.0762" id="linearGradient4" spreadMethod="pad">
        <stop stop-opacity="1" stop-color="rgb(232,238,247)" offset="0%"/>
        <stop stop-opacity="1" stop-color="rgb(183,201,227)" offset="100%"/>
      </linearGradient>
      <linearGradient x1="249.9131" gradientUnits="userSpaceOnUse" x2="464.0869" y1="335.1758" y2="377.1016" id="linearGradient5" spreadMethod="pad">
        <stop stop-opacity="1" stop-color="rgb(232,238,247)" offset="0%"/>
        <stop stop-opacity="1" stop-color="rgb(183,201,227)" offset="100%"/>
      </linearGradient>
      <linearGradient x1="249.9131" gradientUnits="userSpaceOnUse" x2="464.0869" y1="395.2012" y2="437.127" id="linearGradient6" spreadMethod="pad">
        <stop stop-opacity="1" stop-color="rgb(232,238,247)" offset="0%"/>
        <stop stop-opacity="1" stop-color="rgb(183,201,227)" offset="100%"/>
      </linearGradient>
      <linearGradient x1="249.9131" gradientUnits="userSpaceOnUse" x2="464.0869" y1="455.2266" y2="497.1523" id="linearGradient7" spreadMethod="pad">
        <stop stop-opacity="1" stop-color="rgb(232,238,247)" offset="0%"/>
        <stop stop-opacity="1" stop-color="rgb(183,201,227)" offset="100%"/>
      </linearGradient>
      <linearGradient x1="249.9131" gradientUnits="userSpaceOnUse" x2="464.0869" y1="515.252" y2="557.1777" id="linearGradient8" spreadMethod="pad">
        <stop stop-opacity="1" stop-color="rgb(232,238,247)" offset="0%"/>
        <stop stop-opacity="1" stop-color="rgb(183,201,227)" offset="100%"/>
      </linearGradient>
      <linearGradient x1="249.9131" gradientUnits="userSpaceOnUse" x2="464.0869" y1="575.2773" y2="617.2031" id="linearGradient9" spreadMethod="pad">
        <stop stop-opacity="1" stop-color="rgb(232,238,247)" offset="0%"/>
        <stop stop-opacity="1" stop-color="rgb(183,201,227)" offset="100%"/>
      </linearGradient>
      <clipPath clipPathUnits="userSpaceOnUse" id="clipPath1">
        <path d="M0 0 L298 0 L298 560 L0 560 L0 0 Z"/>
      </clipPath>
      <clipPath clipPathUnits="userSpaceOnUse" id="clipPath2">
        <path d="M234 73 L532 73 L532 633 L234 633 L234 73 Z"/>
      </clipPath>
    </defs>
    <g fill="url(#linearGradient1)" stroke-miterlimit="1.45" transform="matrix(1,0,0,1,-234,-73)" stroke-linecap="butt" stroke="url(#linearGradient1)">
      <ellipse rx="60" ry="24.375" clip-path="url(#clipPath2)" cx="357" cy="112.625" stroke="none"/>
      <ellipse clip-path="url(#clipPath2)" fill="none" rx="60" cx="357" ry="24.375" cy="112.625" stroke="black"/>
    </g>
    <g font-family="sans-serif" transform="matrix(1,0,0,1,-234,-73)">
      <text x="310.9072" xml:space="preserve" y="110.0645" clip-path="url(#clipPath2)" stroke="none">Implementering</text>
      <text x="335.9121" xml:space="preserve" y="124.0273" clip-path="url(#clipPath2)" stroke="none">av CBM</text>
    </g>
    <g fill="url(#linearGradient2)" stroke-miterlimit="1.45" transform="matrix(1,0,0,1,-234,-73)" stroke-linecap="butt" stroke="url(#linearGradient2)">
      <path d="M249.9131 155.0996 L464.0869 155.0996 L464.0869 197.0254 L249.9131 197.0254 Z" clip-path="url(#clipPath2)" stroke="none"/>
      <path fill="none" d="M249.9131 155.0996 L464.0869 155.0996 L464.0869 197.0254 L249.9131 197.0254 Z" clip-path="url(#clipPath2)" stroke="black"/>
    </g>
    <g font-family="sans-serif" transform="matrix(1,0,0,1,-234,-73)">
      <text x="284.0068" xml:space="preserve" y="180.4834" clip-path="url(#clipPath2)" stroke="none">1. Kostnad/fördelsanalys</text>
    </g>
    <g fill="url(#linearGradient3)" stroke-miterlimit="1.45" transform="matrix(1,0,0,1,-234,-73)" stroke-linecap="butt" stroke="url(#linearGradient3)">
      <path d="M249.9131 215.125 L464.0869 215.125 L464.0869 257.0508 L249.9131 257.0508 Z" clip-path="url(#clipPath2)" stroke="none"/>
      <path fill="none" d="M249.9131 215.125 L464.0869 215.125 L464.0869 257.0508 L249.9131 257.0508 Z" clip-path="url(#clipPath2)" stroke="black"/>
    </g>
    <g font-family="sans-serif" transform="matrix(1,0,0,1,-234,-73)">
      <text x="282.8232" xml:space="preserve" y="240.5088" clip-path="url(#clipPath2)" stroke="none">2. Utrustningsgranskning</text>
    </g>
    <g fill="url(#linearGradient4)" stroke-miterlimit="1.45" transform="matrix(1,0,0,1,-234,-73)" stroke-linecap="butt" stroke="url(#linearGradient4)">
      <path d="M249.9131 275.1504 L464.0869 275.1504 L464.0869 317.0762 L249.9131 317.0762 Z" clip-path="url(#clipPath2)" stroke="none"/>
      <path fill="none" d="M249.9131 275.1504 L464.0869 275.1504 L464.0869 317.0762 L249.9131 317.0762 Z" clip-path="url(#clipPath2)" stroke="black"/>
    </g>
    <g font-family="sans-serif" transform="matrix(1,0,0,1,-234,-73)">
      <text x="276.1143" xml:space="preserve" y="293.5527" clip-path="url(#clipPath2)" stroke="none">3. Tillförlitlighetsanalys och</text>
      <text x="284.2676" xml:space="preserve" y="307.5156" clip-path="url(#clipPath2)" stroke="none">granskning av kritikalitet</text>
    </g>
    <g fill="url(#linearGradient5)" stroke-miterlimit="1.45" transform="matrix(1,0,0,1,-234,-73)" stroke-linecap="butt" stroke="url(#linearGradient5)">
      <path d="M249.9131 335.1758 L464.0869 335.1758 L464.0869 377.1016 L249.9131 377.1016 Z" clip-path="url(#clipPath2)" stroke="none"/>
      <path fill="none" d="M249.9131 335.1758 L464.0869 335.1758 L464.0869 377.1016 L249.9131 377.1016 Z" clip-path="url(#clipPath2)" stroke="black"/>
    </g>
    <g font-family="sans-serif" transform="matrix(1,0,0,1,-234,-73)">
      <text x="265.5176" xml:space="preserve" y="360.5596" clip-path="url(#clipPath2)" stroke="none">4. Bestämning av underhållstyp</text>
    </g>
    <g fill="url(#linearGradient6)" stroke-miterlimit="1.45" transform="matrix(1,0,0,1,-234,-73)" stroke-linecap="butt" stroke="url(#linearGradient6)">
      <path d="M249.9131 395.2012 L464.0869 395.2012 L464.0869 437.127 L249.9131 437.127 Z" clip-path="url(#clipPath2)" stroke="none"/>
      <path fill="none" d="M249.9131 395.2012 L464.0869 395.2012 L464.0869 437.127 L249.9131 437.127 Z" clip-path="url(#clipPath2)" stroke="black"/>
    </g>
    <g font-family="sans-serif" transform="matrix(1,0,0,1,-234,-73)">
      <text x="273.0762" xml:space="preserve" y="420.585" clip-path="url(#clipPath2)" stroke="none">5. Val av övervakningsmetod</text>
    </g>
    <g fill="url(#linearGradient7)" stroke-miterlimit="1.45" transform="matrix(1,0,0,1,-234,-73)" stroke-linecap="butt" stroke="url(#linearGradient7)">
      <path d="M249.9131 455.2266 L464.0869 455.2266 L464.0869 497.1523 L249.9131 497.1523 Z" clip-path="url(#clipPath2)" stroke="none"/>
      <path fill="none" d="M249.9131 455.2266 L464.0869 455.2266 L464.0869 497.1523 L249.9131 497.1523 Z" clip-path="url(#clipPath2)" stroke="black"/>
    </g>
    <g font-family="sans-serif" transform="matrix(1,0,0,1,-234,-73)">
      <text x="273.542" xml:space="preserve" y="480.6104" clip-path="url(#clipPath2)" stroke="none">6. Dataansamling och analys</text>
    </g>
    <g fill="url(#linearGradient8)" stroke-miterlimit="1.45" transform="matrix(1,0,0,1,-234,-73)" stroke-linecap="butt" stroke="url(#linearGradient8)">
      <path d="M249.9131 515.252 L464.0869 515.252 L464.0869 557.1777 L249.9131 557.1777 Z" clip-path="url(#clipPath2)" stroke="none"/>
      <path fill="none" d="M249.9131 515.252 L464.0869 515.252 L464.0869 557.1777 L249.9131 557.1777 Z" clip-path="url(#clipPath2)" stroke="black"/>
    </g>
    <g font-family="sans-serif" transform="matrix(1,0,0,1,-234,-73)">
      <text x="277.0693" xml:space="preserve" y="540.6357" clip-path="url(#clipPath2)" stroke="none">7. Bestäm underhållsåtgärd</text>
    </g>
    <g fill="url(#linearGradient9)" stroke-miterlimit="1.45" transform="matrix(1,0,0,1,-234,-73)" stroke-linecap="butt" stroke="url(#linearGradient9)">
      <path d="M249.9131 575.2773 L464.0869 575.2773 L464.0869 617.2031 L249.9131 617.2031 Z" clip-path="url(#clipPath2)" stroke="none"/>
      <path fill="none" d="M249.9131 575.2773 L464.0869 575.2773 L464.0869 617.2031 L249.9131 617.2031 Z" clip-path="url(#clipPath2)" stroke="black"/>
    </g>
    <g font-family="sans-serif" transform="matrix(1,0,0,1,-234,-73)">
      <text x="256.9131" xml:space="preserve" y="600.6611" clip-path="url(#clipPath2)" stroke="none">8. Mät och undersök effektiviteten</text>
    </g>
    <g stroke-linecap="butt" transform="matrix(1,0,0,1,-234,-73)" stroke-miterlimit="1.45">
      <path fill="none" d="M357 137.0026 L357 147.1212" clip-path="url(#clipPath2)"/>
    </g>
    <g stroke-linecap="butt" transform="matrix(1,0,0,1,-234,-73)" stroke-miterlimit="1.45">
      <path d="M357 155.1212 L362 143.1212 L357 146.1212 L352 143.1212 Z" clip-path="url(#clipPath2)" stroke="none"/>
      <path fill="none" d="M357 197.0186 L357 207.1416" clip-path="url(#clipPath2)"/>
      <path d="M357 215.1416 L362 203.1416 L357 206.1416 L352 203.1416 Z" clip-path="url(#clipPath2)" stroke="none"/>
      <path fill="none" d="M357 257.044 L357 267.167" clip-path="url(#clipPath2)"/>
      <path d="M357 275.167 L362 263.167 L357 266.167 L352 263.167 Z" clip-path="url(#clipPath2)" stroke="none"/>
      <path fill="none" d="M357 317.0694 L357 327.1924" clip-path="url(#clipPath2)"/>
      <path d="M357 335.1924 L362 323.1924 L357 326.1924 L352 323.1924 Z" clip-path="url(#clipPath2)" stroke="none"/>
      <path fill="none" d="M357 377.0948 L357 387.2177" clip-path="url(#clipPath2)"/>
      <path d="M357 395.2177 L362 383.2177 L357 386.2177 L352 383.2177 Z" clip-path="url(#clipPath2)" stroke="none"/>
      <path fill="none" d="M357 437.1202 L357 447.2431" clip-path="url(#clipPath2)"/>
      <path d="M357 455.2431 L362 443.2431 L357 446.2431 L352 443.2431 Z" clip-path="url(#clipPath2)" stroke="none"/>
      <path fill="none" d="M357 497.1456 L357 507.2685" clip-path="url(#clipPath2)"/>
      <path d="M357 515.2686 L362 503.2686 L357 506.2686 L352 503.2686 Z" clip-path="url(#clipPath2)" stroke="none"/>
      <path fill="none" d="M357 557.171 L357 567.2939" clip-path="url(#clipPath2)"/>
      <path d="M357 575.2939 L362 563.2939 L357 566.2939 L352 563.2939 Z" clip-path="url(#clipPath2)" stroke="none"/>
      <path fill="none" stroke-dasharray="6,2" d="M464.0703 596.2402 L517 596.2402 L517 176.0625 L472.0703 176.0625" clip-path="url(#clipPath2)"/>
      <path stroke-dasharray="6,2" d="M464.0703 176.0625 L476.0703 181.0625 L473.0703 176.0625 L476.0703 171.0625 Z" clip-path="url(#clipPath2)" stroke="none"/>
    </g>
  </g>
</svg>
