<?xml version="1.0" encoding="UTF-8"?>
<svg xmlns="http://www.w3.org/2000/svg" xmlns:xlink="http://www.w3.org/1999/xlink" fill-opacity="1" color-rendering="auto" color-interpolation="auto" stroke="black" text-rendering="auto" stroke-linecap="square" width="848" stroke-miterlimit="10" stroke-opacity="1" shape-rendering="auto" fill="black" stroke-dasharray="none" font-weight="normal" stroke-width="1" height="490" font-family="'Dialog'" font-style="normal" stroke-linejoin="miter" font-size="12" stroke-dashoffset="0" image-rendering="auto">
  <!--Generated by ySVG-->
  <defs id="genericDefs"/>
  <g>
    <defs id="defs1">
      <linearGradient x1="20.2773" gradientUnits="userSpaceOnUse" x2="100.2773" y1="93.3476" y2="133.3476" id="linearGradient1" spreadMethod="pad">
        <stop stop-opacity="1" stop-color="rgb(232,238,247)" offset="0%"/>
        <stop stop-opacity="1" stop-color="rgb(183,201,227)" offset="100%"/>
      </linearGradient>
      <linearGradient x1="135.5547" gradientUnits="userSpaceOnUse" x2="215.5547" y1="93.3476" y2="133.3476" id="linearGradient2" spreadMethod="pad">
        <stop stop-opacity="1" stop-color="rgb(232,238,247)" offset="0%"/>
        <stop stop-opacity="1" stop-color="rgb(183,201,227)" offset="100%"/>
      </linearGradient>
      <linearGradient x1="235.5547" gradientUnits="userSpaceOnUse" x2="315.5547" y1="93.3476" y2="133.3476" id="linearGradient3" spreadMethod="pad">
        <stop stop-opacity="1" stop-color="rgb(232,238,247)" offset="0%"/>
        <stop stop-opacity="1" stop-color="rgb(183,201,227)" offset="100%"/>
      </linearGradient>
      <linearGradient x1="335.5547" gradientUnits="userSpaceOnUse" x2="415.5547" y1="93.3476" y2="133.3476" id="linearGradient4" spreadMethod="pad">
        <stop stop-opacity="1" stop-color="rgb(232,238,247)" offset="0%"/>
        <stop stop-opacity="1" stop-color="rgb(183,201,227)" offset="100%"/>
      </linearGradient>
      <linearGradient x1="435.5547" gradientUnits="userSpaceOnUse" x2="515.5547" y1="93.3476" y2="133.3476" id="linearGradient5" spreadMethod="pad">
        <stop stop-opacity="1" stop-color="rgb(232,238,247)" offset="0%"/>
        <stop stop-opacity="1" stop-color="rgb(183,201,227)" offset="100%"/>
      </linearGradient>
      <linearGradient x1="535.5547" gradientUnits="userSpaceOnUse" x2="615.5547" y1="93.3476" y2="133.3476" id="linearGradient6" spreadMethod="pad">
        <stop stop-opacity="1" stop-color="rgb(232,238,247)" offset="0%"/>
        <stop stop-opacity="1" stop-color="rgb(183,201,227)" offset="100%"/>
      </linearGradient>
      <linearGradient x1="635.5547" gradientUnits="userSpaceOnUse" x2="715.5547" y1="93.3476" y2="133.3476" id="linearGradient7" spreadMethod="pad">
        <stop stop-opacity="1" stop-color="rgb(232,238,247)" offset="0%"/>
        <stop stop-opacity="1" stop-color="rgb(183,201,227)" offset="100%"/>
      </linearGradient>
      <linearGradient x1="293.7665" gradientUnits="userSpaceOnUse" x2="373.7665" y1="209.9218" y2="249.9218" id="linearGradient8" spreadMethod="pad">
        <stop stop-opacity="1" stop-color="rgb(232,238,247)" offset="0%"/>
        <stop stop-opacity="1" stop-color="rgb(183,201,227)" offset="100%"/>
      </linearGradient>
      <linearGradient x1="394.7558" gradientUnits="userSpaceOnUse" x2="487.2558" y1="204.2968" y2="255.5468" id="linearGradient9" spreadMethod="pad">
        <stop stop-opacity="1" stop-color="rgb(232,238,247)" offset="0%"/>
        <stop stop-opacity="1" stop-color="rgb(183,201,227)" offset="100%"/>
      </linearGradient>
      <linearGradient x1="235.5547" gradientUnits="userSpaceOnUse" x2="315.5547" y1="-53.9613" y2="-13.9613" id="linearGradient10" spreadMethod="pad">
        <stop stop-opacity="1" stop-color="rgb(232,238,247)" offset="0%"/>
        <stop stop-opacity="1" stop-color="rgb(183,201,227)" offset="100%"/>
      </linearGradient>
      <linearGradient x1="69.8447" gradientUnits="userSpaceOnUse" x2="167.2437" y1="-64.7177" y2="-3.2048" id="linearGradient11" spreadMethod="pad">
        <stop stop-opacity="1" stop-color="rgb(232,238,247)" offset="0%"/>
        <stop stop-opacity="1" stop-color="rgb(183,201,227)" offset="100%"/>
      </linearGradient>
      <linearGradient x1="69.8447" gradientUnits="userSpaceOnUse" x2="167.2437" y1="199.1653" y2="260.6782" id="linearGradient12" spreadMethod="pad">
        <stop stop-opacity="1" stop-color="rgb(232,238,247)" offset="0%"/>
        <stop stop-opacity="1" stop-color="rgb(183,201,227)" offset="100%"/>
      </linearGradient>
      <clipPath clipPathUnits="userSpaceOnUse" id="clipPath1">
        <path d="M0 0 L848 0 L848 490 L0 490 L0 0 Z"/>
      </clipPath>
      <clipPath clipPathUnits="userSpaceOnUse" id="clipPath2">
        <path d="M-67 -157 L781 -157 L781 333 L-67 333 L-67 -157 Z"/>
      </clipPath>
    </defs>
    <g fill="rgb(236,245,255)" transform="matrix(1,0,0,1,67,157)" stroke="rgb(236,245,255)">
      <path d="M-51.518 -141.1161 L-51.518 -111.1161 L765.3977 -111.1161 L765.3977 -141.1161 Z" clip-path="url(#clipPath2)" stroke="none"/>
      <rect x="-51.518" width="816.9157" height="429.0177" y="-111.1161" clip-path="url(#clipPath2)" stroke="none"/>
      <rect x="-51.518" y="-111.1161" clip-path="url(#clipPath2)" fill="rgb(196,215,237)" width="277.7471" height="24" stroke="none"/>
      <rect x="-51.518" y="-87.1161" clip-path="url(#clipPath2)" fill="rgb(196,215,237)" width="277.7471" height="405.0177" stroke="none"/>
      <rect x="226.229" y="-111.1161" clip-path="url(#clipPath2)" fill="rgb(171,200,226)" width="298.8323" height="24" stroke="none"/>
      <rect x="226.229" y="-87.1161" clip-path="url(#clipPath2)" fill="rgb(171,200,226)" width="298.8323" height="405.0177" stroke="none"/>
      <rect x="525.0613" y="-111.1161" clip-path="url(#clipPath2)" fill="rgb(196,215,237)" width="240.3364" height="24" stroke="none"/>
      <rect x="525.0613" y="-87.1161" clip-path="url(#clipPath2)" fill="rgb(196,215,237)" width="240.3364" height="405.0177" stroke="none"/>
      <line clip-path="url(#clipPath2)" fill="rgb(113,146,178)" x1="-51.518" x2="-51.518" y1="-87.1161" y2="317.9016" stroke="none"/>
    </g>
    <g stroke-linecap="butt" transform="matrix(1,0,0,1,67,157)" stroke-miterlimit="1.45">
      <rect fill="none" x="-51.518" width="816.9157" height="459.0177" y="-141.1161" clip-path="url(#clipPath2)"/>
      <rect fill="none" x="-51.518" width="277.7471" height="429.0177" y="-111.1161" clip-path="url(#clipPath2)"/>
      <rect fill="none" x="226.229" width="298.8323" height="429.0177" y="-111.1161" clip-path="url(#clipPath2)"/>
      <rect fill="none" x="525.0613" width="240.3364" height="429.0177" y="-111.1161" clip-path="url(#clipPath2)"/>
      <rect fill="none" x="-51.518" width="816.9157" height="405.0177" y="-87.1161" clip-path="url(#clipPath2)"/>
    </g>
    <g font-family="sans-serif" font-size="15" transform="matrix(1,0,0,1,67,157)">
      <text x="283.7892" xml:space="preserve" y="-120.8632" clip-path="url(#clipPath2)" stroke="none">Personaldistribution</text>
      <text x="0.584" xml:space="preserve" font-size="12" y="-94.7138" clip-path="url(#clipPath2)" stroke="none">Vibrationsanalytiker / konsult</text>
      <text x="328.2487" xml:space="preserve" font-size="12" y="-94.7138" clip-path="url(#clipPath2)" stroke="none">Underhållsenhet</text>
      <text x="616.8496" xml:space="preserve" font-size="12" y="-94.7138" clip-path="url(#clipPath2)" stroke="none">Reparatör</text>
    </g>
    <g fill="url(#linearGradient1)" stroke-miterlimit="1.45" transform="matrix(1,0,0,1,67,157)" stroke-linecap="butt" stroke="url(#linearGradient1)">
      <path d="M20.2773 93.3476 L100.2773 93.3476 L100.2773 133.3476 L20.2773 133.3476 Z" clip-path="url(#clipPath2)" stroke="none"/>
      <path fill="none" d="M20.2773 93.3476 L100.2773 93.3476 L100.2773 133.3476 L20.2773 133.3476 Z" clip-path="url(#clipPath2)" stroke="black"/>
    </g>
    <g font-family="sans-serif" transform="matrix(1,0,0,1,67,157)">
      <text x="41.2373" xml:space="preserve" y="110.787" clip-path="url(#clipPath2)" stroke="none">Skapa </text>
      <text x="21.04" xml:space="preserve" y="124.7499" clip-path="url(#clipPath2)" stroke="none">felmedelande</text>
    </g>
    <g fill="url(#linearGradient2)" stroke-miterlimit="1.45" transform="matrix(1,0,0,1,67,157)" stroke-linecap="butt" stroke="url(#linearGradient2)">
      <path d="M135.5547 93.3476 L215.5547 93.3476 L215.5547 133.3476 L135.5547 133.3476 Z" clip-path="url(#clipPath2)" stroke="none"/>
      <path fill="none" d="M135.5547 93.3476 L215.5547 93.3476 L215.5547 133.3476 L135.5547 133.3476 Z" clip-path="url(#clipPath2)" stroke="black"/>
    </g>
    <g font-family="sans-serif" transform="matrix(1,0,0,1,67,157)">
      <text x="140.8232" xml:space="preserve" y="117.7685" clip-path="url(#clipPath2)" stroke="none">Arbetsorder</text>
    </g>
    <g fill="url(#linearGradient3)" stroke-miterlimit="1.45" transform="matrix(1,0,0,1,67,157)" stroke-linecap="butt" stroke="url(#linearGradient3)">
      <path d="M235.5547 93.3476 L315.5547 93.3476 L315.5547 133.3476 L235.5547 133.3476 Z" clip-path="url(#clipPath2)" stroke="none"/>
      <path fill="none" d="M235.5547 93.3476 L315.5547 93.3476 L315.5547 133.3476 L235.5547 133.3476 Z" clip-path="url(#clipPath2)" stroke="black"/>
    </g>
    <g font-family="sans-serif" transform="matrix(1,0,0,1,67,157)">
      <text x="252.457" xml:space="preserve" y="110.787" clip-path="url(#clipPath2)" stroke="none">Planera </text>
      <text x="257.0801" xml:space="preserve" y="124.7499" clip-path="url(#clipPath2)" stroke="none">arbete</text>
    </g>
    <g fill="url(#linearGradient4)" stroke-miterlimit="1.45" transform="matrix(1,0,0,1,67,157)" stroke-linecap="butt" stroke="url(#linearGradient4)">
      <path d="M335.5547 93.3476 L415.5547 93.3476 L415.5547 133.3476 L335.5547 133.3476 Z" clip-path="url(#clipPath2)" stroke="none"/>
      <path fill="none" d="M335.5547 93.3476 L415.5547 93.3476 L415.5547 133.3476 L335.5547 133.3476 Z" clip-path="url(#clipPath2)" stroke="black"/>
    </g>
    <g font-family="sans-serif" transform="matrix(1,0,0,1,67,157)">
      <text x="340.7383" xml:space="preserve" y="110.787" clip-path="url(#clipPath2)" stroke="none">Schemalägg</text>
      <text x="357.0801" xml:space="preserve" y="124.7499" clip-path="url(#clipPath2)" stroke="none">arbete</text>
    </g>
    <g fill="url(#linearGradient5)" stroke-miterlimit="1.45" transform="matrix(1,0,0,1,67,157)" stroke-linecap="butt" stroke="url(#linearGradient5)">
      <path d="M435.5547 93.3476 L515.5547 93.3476 L515.5547 133.3476 L435.5547 133.3476 Z" clip-path="url(#clipPath2)" stroke="none"/>
      <path fill="none" d="M435.5547 93.3476 L515.5547 93.3476 L515.5547 133.3476 L435.5547 133.3476 Z" clip-path="url(#clipPath2)" stroke="black"/>
    </g>
    <g font-family="sans-serif" transform="matrix(1,0,0,1,67,157)">
      <text x="459.6113" xml:space="preserve" y="110.787" clip-path="url(#clipPath2)" stroke="none">Sänd </text>
      <text x="441.6494" xml:space="preserve" y="124.7499" clip-path="url(#clipPath2)" stroke="none">arbetsorder</text>
    </g>
    <g fill="url(#linearGradient6)" stroke-miterlimit="1.45" transform="matrix(1,0,0,1,67,157)" stroke-linecap="butt" stroke="url(#linearGradient6)">
      <path d="M535.5547 93.3476 L615.5547 93.3476 L615.5547 133.3476 L535.5547 133.3476 Z" clip-path="url(#clipPath2)" stroke="none"/>
      <path fill="none" d="M535.5547 93.3476 L615.5547 93.3476 L615.5547 133.3476 L535.5547 133.3476 Z" clip-path="url(#clipPath2)" stroke="black"/>
    </g>
    <g font-family="sans-serif" transform="matrix(1,0,0,1,67,157)">
      <text x="540.4336" xml:space="preserve" y="117.7685" clip-path="url(#clipPath2)" stroke="none">Utför arbete</text>
    </g>
    <g fill="url(#linearGradient7)" stroke-miterlimit="1.45" transform="matrix(1,0,0,1,67,157)" stroke-linecap="butt" stroke="url(#linearGradient7)">
      <path d="M635.5547 93.3476 L715.5547 93.3476 L715.5547 133.3476 L635.5547 133.3476 Z" clip-path="url(#clipPath2)" stroke="none"/>
      <path fill="none" d="M635.5547 93.3476 L715.5547 93.3476 L715.5547 133.3476 L635.5547 133.3476 Z" clip-path="url(#clipPath2)" stroke="black"/>
    </g>
    <g font-family="sans-serif" transform="matrix(1,0,0,1,67,157)">
      <text x="637.6943" xml:space="preserve" y="117.7685" clip-path="url(#clipPath2)" stroke="none">Återkoppling</text>
    </g>
    <g fill="url(#linearGradient8)" stroke-miterlimit="1.45" transform="matrix(1,0,0,1,67,157)" stroke-linecap="butt" stroke="url(#linearGradient8)">
      <path d="M293.7665 209.9218 L373.7665 209.9218 L373.7665 249.9218 L293.7665 249.9218 Z" clip-path="url(#clipPath2)" stroke="none"/>
      <path fill="none" d="M293.7665 209.9218 L373.7665 209.9218 L373.7665 249.9218 L293.7665 249.9218 Z" clip-path="url(#clipPath2)" stroke="black"/>
    </g>
    <g font-family="sans-serif" transform="matrix(1,0,0,1,67,157)">
      <text x="306.957" xml:space="preserve" y="227.3612" clip-path="url(#clipPath2)" stroke="none">Tekniskt </text>
      <text x="316.5869" xml:space="preserve" y="241.3241" clip-path="url(#clipPath2)" stroke="none">avslut</text>
    </g>
    <g fill="url(#linearGradient9)" stroke-miterlimit="1.45" transform="matrix(1,0,0,1,67,157)" stroke-linecap="butt" stroke="url(#linearGradient9)">
      <path d="M394.7558 204.2968 L487.2558 204.2968 L487.2558 255.5468 L394.7558 255.5468 Z" clip-path="url(#clipPath2)" stroke="none"/>
      <path fill="none" d="M394.7558 204.2968 L487.2558 204.2968 L487.2558 255.5468 L394.7558 255.5468 Z" clip-path="url(#clipPath2)" stroke="black"/>
    </g>
    <g font-family="sans-serif" transform="matrix(1,0,0,1,67,157)">
      <text x="408.6152" xml:space="preserve" y="220.3798" clip-path="url(#clipPath2)" stroke="none">Rapport till</text>
      <text x="406.1982" xml:space="preserve" y="234.3427" clip-path="url(#clipPath2)" stroke="none">skaparen av</text>
      <text x="397.9921" xml:space="preserve" y="248.3056" clip-path="url(#clipPath2)" stroke="none">felmeddelande</text>
    </g>
    <g fill="url(#linearGradient10)" stroke-miterlimit="1.45" transform="matrix(1,0,0,1,67,157)" stroke-linecap="butt" stroke="url(#linearGradient10)">
      <path d="M235.5547 -53.9613 L315.5547 -53.9613 L315.5547 -13.9613 L235.5547 -13.9613 Z" clip-path="url(#clipPath2)" stroke="none"/>
      <path fill="none" d="M235.5547 -53.9613 L315.5547 -53.9613 L315.5547 -13.9613 L235.5547 -13.9613 Z" clip-path="url(#clipPath2)" stroke="black"/>
    </g>
    <g font-family="sans-serif" transform="matrix(1,0,0,1,67,157)">
      <text x="249.1055" xml:space="preserve" y="-36.5218" clip-path="url(#clipPath2)" stroke="none">Samla in </text>
      <text x="262.9072" xml:space="preserve" y="-22.5589" clip-path="url(#clipPath2)" stroke="none">data</text>
    </g>
    <g fill="url(#linearGradient11)" stroke-miterlimit="1.45" transform="matrix(1,0,0,1,67,157)" stroke-linecap="butt" stroke="url(#linearGradient11)">
      <path d="M118.5442 -64.7177 L167.2437 -33.9613 L118.5442 -3.2048 L69.8447 -33.9613 Z" clip-path="url(#clipPath2)" stroke="none"/>
      <path fill="none" d="M118.5442 -64.7177 L167.2437 -33.9613 L118.5442 -3.2048 L69.8447 -33.9613 Z" clip-path="url(#clipPath2)" stroke="black"/>
    </g>
    <g font-family="sans-serif" transform="matrix(1,0,0,1,67,157)">
      <text x="93.3577" xml:space="preserve" y="-36.5218" clip-path="url(#clipPath2)" stroke="none">Finns ett</text>
      <text x="91.6409" xml:space="preserve" y="-22.5589" clip-path="url(#clipPath2)" stroke="none">problem?</text>
    </g>
    <g fill="url(#linearGradient12)" stroke-miterlimit="1.45" transform="matrix(1,0,0,1,67,157)" stroke-linecap="butt" stroke="url(#linearGradient12)">
      <path d="M69.8447 211.4679 C72.7667 199.1653 164.3218 199.1653 167.2437 211.4679 L167.2437 248.3756 C164.3218 260.6782 72.7667 260.6782 69.8447 248.3756 Z" clip-path="url(#clipPath2)" stroke="none"/>
      <path fill="none" d="M69.8447 211.4679 C72.7667 199.1653 164.3218 199.1653 167.2437 211.4679 L167.2437 248.3756 C164.3218 260.6782 72.7667 260.6782 69.8447 248.3756 Z" clip-path="url(#clipPath2)" stroke="black"/>
      <path fill="none" d="M167.2437 211.4679 C164.3218 223.7705 72.7667 223.7705 69.8447 211.4679" clip-path="url(#clipPath2)" stroke="black"/>
    </g>
    <g font-family="sans-serif" transform="matrix(1,0,0,1,67,157)">
      <text x="73.7727" xml:space="preserve" y="234.3427" clip-path="url(#clipPath2)" stroke="none">Lagring av data</text>
    </g>
    <g stroke-linecap="butt" transform="matrix(1,0,0,1,67,157)" stroke-miterlimit="1.45">
      <path fill="none" d="M100.2773 113.3476 L127.5202 113.3476" clip-path="url(#clipPath2)"/>
    </g>
    <g stroke-linecap="butt" transform="matrix(1,0,0,1,67,157)" stroke-miterlimit="1.45">
      <path d="M135.5202 113.3476 L123.5202 108.3476 L126.5202 113.3476 L123.5202 118.3476 Z" clip-path="url(#clipPath2)" stroke="none"/>
      <path fill="none" d="M215.5547 113.3476 L227.5156 113.3476" clip-path="url(#clipPath2)"/>
      <path d="M235.5156 113.3476 L223.5156 108.3476 L226.5156 113.3476 L223.5156 118.3476 Z" clip-path="url(#clipPath2)" stroke="none"/>
      <path fill="none" d="M315.5547 113.3476 L327.5156 113.3476" clip-path="url(#clipPath2)"/>
      <path d="M335.5156 113.3476 L323.5156 108.3476 L326.5156 113.3476 L323.5156 118.3476 Z" clip-path="url(#clipPath2)" stroke="none"/>
      <path fill="none" d="M415.5547 113.3476 L427.5156 113.3476" clip-path="url(#clipPath2)"/>
      <path d="M435.5156 113.3476 L423.5156 108.3476 L426.5156 113.3476 L423.5156 118.3476 Z" clip-path="url(#clipPath2)" stroke="none"/>
      <path fill="none" d="M515.5547 113.3476 L527.5156 113.3476" clip-path="url(#clipPath2)"/>
      <path d="M535.5156 113.3476 L523.5156 108.3476 L526.5156 113.3476 L523.5156 118.3476 Z" clip-path="url(#clipPath2)" stroke="none"/>
      <path fill="none" d="M615.5547 113.3476 L627.5156 113.3476" clip-path="url(#clipPath2)"/>
      <path d="M635.5156 113.3476 L623.5156 108.3476 L626.5156 113.3476 L623.5156 118.3476 Z" clip-path="url(#clipPath2)" stroke="none"/>
      <path fill="none" d="M715.5495 113.3476 L752.7548 113.3476 L752.7548 183.3564 L264.9839 183.3564 L264.9839 229.9218 L285.7664 229.9218" clip-path="url(#clipPath2)"/>
      <path d="M293.7664 229.9218 L281.7664 224.9218 L284.7664 229.9218 L281.7664 234.9218 Z" clip-path="url(#clipPath2)" stroke="none"/>
      <path fill="none" d="M373.8075 229.9218 L386.7558 229.9218" clip-path="url(#clipPath2)"/>
      <path d="M394.7558 229.9218 L382.7558 224.9218 L385.7558 229.9218 L382.7558 234.9218 Z" clip-path="url(#clipPath2)" stroke="none"/>
      <path fill="none" d="M235.5737 -33.9613 L175.2589 -33.9613" clip-path="url(#clipPath2)"/>
      <path d="M167.2589 -33.9613 L179.2589 -28.9613 L176.2589 -33.9613 L179.2589 -38.9613 Z" clip-path="url(#clipPath2)" stroke="none"/>
      <path fill="none" d="M69.8652 -33.9613 L60.2773 -33.9613 L60.2773 85.3156" clip-path="url(#clipPath2)"/>
      <path d="M60.2773 93.3156 L65.2773 81.3156 L60.2773 84.3156 L55.2773 81.3156 Z" clip-path="url(#clipPath2)" stroke="none"/>
      <text x="53.3188" xml:space="preserve" y="-38.5218" font-family="sans-serif" clip-path="url(#clipPath2)" stroke="none">Ja</text>
      <path fill="none" d="M487.2595 229.9218 L510.4032 229.9218 L510.4032 283.5694 L118.5442 283.5694 L118.5442 265.61" clip-path="url(#clipPath2)"/>
      <path d="M118.5442 257.61 L113.5442 269.61 L118.5442 266.61 L123.5442 269.61 Z" clip-path="url(#clipPath2)" stroke="none"/>
      <path fill="none" d="M118.5442 -3.1986 L118.5442 194.233" clip-path="url(#clipPath2)"/>
      <path d="M118.5442 202.233 L123.5442 190.233 L118.5442 193.233 L113.5442 190.233 Z" clip-path="url(#clipPath2)" stroke="none"/>
      <text x="95.343" xml:space="preserve" y="20.3225" font-family="sans-serif" clip-path="url(#clipPath2)" stroke="none">Nej</text>
    </g>
  </g>
</svg>
