<?xml version="1.0" encoding="UTF-8"?>
<svg xmlns="http://www.w3.org/2000/svg" xmlns:xlink="http://www.w3.org/1999/xlink" fill-opacity="1" color-rendering="auto" color-interpolation="auto" stroke="black" text-rendering="auto" stroke-linecap="square" width="574" stroke-miterlimit="10" stroke-opacity="1" shape-rendering="auto" fill="black" stroke-dasharray="none" font-weight="normal" stroke-width="1" height="352" font-family="'Dialog'" font-style="normal" stroke-linejoin="miter" font-size="12" stroke-dashoffset="0" image-rendering="auto">
  <!--Generated by ySVG-->
  <defs id="genericDefs"/>
  <g>
    <defs id="defs1">
      <linearGradient x1="217.0274" gradientUnits="userSpaceOnUse" x2="330.3789" y1="11.4536" y2="67.3423" id="linearGradient1" spreadMethod="pad">
        <stop stop-opacity="1" stop-color="rgb(232,238,247)" offset="0%"/>
        <stop stop-opacity="1" stop-color="rgb(183,201,227)" offset="100%"/>
      </linearGradient>
      <linearGradient x1="73.6758" gradientUnits="userSpaceOnUse" x2="187.0274" y1="97.3423" y2="153.231" id="linearGradient2" spreadMethod="pad">
        <stop stop-opacity="1" stop-color="rgb(232,238,247)" offset="0%"/>
        <stop stop-opacity="1" stop-color="rgb(183,201,227)" offset="100%"/>
      </linearGradient>
      <linearGradient x1="360.3789" gradientUnits="userSpaceOnUse" x2="473.7305" y1="97.3423" y2="153.231" id="linearGradient3" spreadMethod="pad">
        <stop stop-opacity="1" stop-color="rgb(232,238,247)" offset="0%"/>
        <stop stop-opacity="1" stop-color="rgb(183,201,227)" offset="100%"/>
      </linearGradient>
      <linearGradient x1="288.7032" gradientUnits="userSpaceOnUse" x2="402.0547" y1="183.231" y2="239.1196" id="linearGradient4" spreadMethod="pad">
        <stop stop-opacity="1" stop-color="rgb(232,238,247)" offset="0%"/>
        <stop stop-opacity="1" stop-color="rgb(183,201,227)" offset="100%"/>
      </linearGradient>
      <linearGradient x1="432.0547" gradientUnits="userSpaceOnUse" x2="545.4062" y1="183.231" y2="239.1196" id="linearGradient5" spreadMethod="pad">
        <stop stop-opacity="1" stop-color="rgb(232,238,247)" offset="0%"/>
        <stop stop-opacity="1" stop-color="rgb(183,201,227)" offset="100%"/>
      </linearGradient>
      <clipPath clipPathUnits="userSpaceOnUse" id="clipPath1">
        <path d="M0 0 L574 0 L574 352 L0 352 L0 0 Z"/>
      </clipPath>
      <clipPath clipPathUnits="userSpaceOnUse" id="clipPath2">
        <path d="M-13 -4 L561 -4 L561 348 L-13 348 L-13 -4 Z"/>
      </clipPath>
    </defs>
    <g fill="white" transform="translate(13,4)" stroke="white">
      <rect x="-13" width="574" height="352" y="-4" clip-path="url(#clipPath2)" stroke="none"/>
    </g>
    <g fill="url(#linearGradient1)" stroke-miterlimit="1.45" transform="matrix(1,0,0,1,13,4)" stroke-linecap="butt" stroke="url(#linearGradient1)">
      <path d="M217.0274 11.4536 L330.3789 11.4536 L330.3789 67.3423 L217.0274 67.3423 Z" clip-path="url(#clipPath2)" stroke="none"/>
      <path fill="none" d="M217.0274 11.4536 L330.3789 11.4536 L330.3789 67.3423 L217.0274 67.3423 Z" clip-path="url(#clipPath2)" stroke="black"/>
    </g>
    <g font-family="sans-serif" transform="matrix(1,0,0,1,13,4)">
      <text x="245.7422" xml:space="preserve" y="43.8188" clip-path="url(#clipPath2)" stroke="none">Underhåll</text>
    </g>
    <g fill="url(#linearGradient2)" stroke-miterlimit="1.45" transform="matrix(1,0,0,1,13,4)" stroke-linecap="butt" stroke="url(#linearGradient2)">
      <path d="M73.6758 97.3423 L187.0274 97.3423 L187.0274 153.231 L73.6758 153.231 Z" clip-path="url(#clipPath2)" stroke="none"/>
      <path fill="none" d="M73.6758 97.3423 L187.0274 97.3423 L187.0274 153.231 L73.6758 153.231 Z" clip-path="url(#clipPath2)" stroke="black"/>
    </g>
    <g font-family="sans-serif" transform="matrix(1,0,0,1,13,4)">
      <text x="94.5772" xml:space="preserve" y="122.7261" clip-path="url(#clipPath2)" stroke="none">Avhjälpande</text>
      <text x="117.1299" xml:space="preserve" y="136.689" clip-path="url(#clipPath2)" stroke="none">(CM)</text>
    </g>
    <g fill="url(#linearGradient3)" stroke-miterlimit="1.45" transform="matrix(1,0,0,1,13,4)" stroke-linecap="butt" stroke="url(#linearGradient3)">
      <path d="M360.3789 97.3423 L473.7305 97.3423 L473.7305 153.231 L360.3789 153.231 Z" clip-path="url(#clipPath2)" stroke="none"/>
      <path fill="none" d="M360.3789 97.3423 L473.7305 97.3423 L473.7305 153.231 L360.3789 153.231 Z" clip-path="url(#clipPath2)" stroke="black"/>
    </g>
    <g font-family="sans-serif" transform="matrix(1,0,0,1,13,4)">
      <text x="375.8047" xml:space="preserve" y="122.7261" clip-path="url(#clipPath2)" stroke="none">Förebyggande</text>
      <text x="402.7696" xml:space="preserve" y="136.689" clip-path="url(#clipPath2)" stroke="none">(PM) </text>
    </g>
    <g fill="url(#linearGradient4)" stroke-miterlimit="1.45" transform="matrix(1,0,0,1,13,4)" stroke-linecap="butt" stroke="url(#linearGradient4)">
      <path d="M288.7032 183.231 L402.0547 183.231 L402.0547 239.1196 L288.7032 239.1196 Z" clip-path="url(#clipPath2)" stroke="none"/>
      <path fill="none" d="M288.7032 183.231 L402.0547 183.231 L402.0547 239.1196 L288.7032 239.1196 Z" clip-path="url(#clipPath2)" stroke="black"/>
    </g>
    <g font-family="sans-serif" transform="matrix(1,0,0,1,13,4)">
      <text x="295.7032" xml:space="preserve" y="208.6147" clip-path="url(#clipPath2)" stroke="none">Tillståndsbaserat</text>
      <text x="328.7061" xml:space="preserve" y="222.5776" clip-path="url(#clipPath2)" stroke="none">(CBM)</text>
    </g>
    <g fill="url(#linearGradient5)" stroke-miterlimit="1.45" transform="matrix(1,0,0,1,13,4)" stroke-linecap="butt" stroke="url(#linearGradient5)">
      <path d="M432.0547 183.231 L545.4063 183.231 L545.4063 239.1196 L432.0547 239.1196 Z" clip-path="url(#clipPath2)" stroke="none"/>
      <path fill="none" d="M432.0547 183.231 L545.4063 183.231 L545.4063 239.1196 L432.0547 239.1196 Z" clip-path="url(#clipPath2)" stroke="black"/>
    </g>
    <g font-family="sans-serif" transform="matrix(1,0,0,1,13,4)">
      <text x="449.8242" xml:space="preserve" y="208.6147" clip-path="url(#clipPath2)" stroke="none">Förutbestämt</text>
      <text x="472.5674" xml:space="preserve" y="222.5776" clip-path="url(#clipPath2)" stroke="none">(PdM)</text>
    </g>
    <g fill="rgb(232,238,247)" stroke-dasharray="6,2" stroke-miterlimit="1.45" transform="matrix(1,0,0,1,13,4)" stroke-linecap="butt" stroke="rgb(232,238,247)">
      <path d="M2 276.9021 L115.3516 276.9021 L115.3516 332.7908 L2 332.7908 Z" clip-path="url(#clipPath2)" stroke="none"/>
      <path fill="none" d="M2 276.9021 L115.3516 276.9021 L115.3516 332.7908 L2 332.7908 Z" clip-path="url(#clipPath2)" stroke="black"/>
    </g>
    <g font-family="sans-serif" transform="matrix(1,0,0,1,13,4)">
      <text x="27.0205" xml:space="preserve" y="309.2673" clip-path="url(#clipPath2)" stroke="none">Uppskjutet</text>
    </g>
    <g fill="rgb(232,238,247)" stroke-dasharray="6,2" stroke-miterlimit="1.45" transform="matrix(1,0,0,1,13,4)" stroke-linecap="butt" stroke="rgb(232,238,247)">
      <path d="M145.3516 276.9021 L258.7032 276.9021 L258.7032 332.7908 L145.3516 332.7908 Z" clip-path="url(#clipPath2)" stroke="none"/>
      <path fill="none" d="M145.3516 276.9021 L258.7032 276.9021 L258.7032 332.7908 L145.3516 332.7908 Z" clip-path="url(#clipPath2)" stroke="black"/>
    </g>
    <g font-family="sans-serif" transform="matrix(1,0,0,1,13,4)">
      <text x="188.4131" xml:space="preserve" y="309.2673" clip-path="url(#clipPath2)" stroke="none">Akut</text>
    </g>
    <g fill="rgb(232,238,247)" stroke-dasharray="6,2" stroke-miterlimit="1.45" transform="matrix(1,0,0,1,13,4)" stroke-linecap="butt" stroke="rgb(232,238,247)">
      <path d="M432.0547 276.9021 L545.4063 276.9021 L545.4063 332.7908 L432.0547 332.7908 Z" clip-path="url(#clipPath2)" stroke="none"/>
      <path fill="none" d="M432.0547 276.9021 L545.4063 276.9021 L545.4063 332.7908 L432.0547 332.7908 Z" clip-path="url(#clipPath2)" stroke="black"/>
    </g>
    <g font-family="sans-serif" transform="matrix(1,0,0,1,13,4)">
      <text x="453.879" xml:space="preserve" y="309.2673" clip-path="url(#clipPath2)" stroke="none">Schemalagd</text>
    </g>
    <g fill="rgb(232,238,247)" stroke-dasharray="6,2" stroke-miterlimit="1.45" transform="matrix(1,0,0,1,13,4)" stroke-linecap="butt" stroke="rgb(232,238,247)">
      <path d="M288.7032 276.9021 L402.0547 276.9021 L402.0547 332.7908 L288.7032 332.7908 Z" clip-path="url(#clipPath2)" stroke="none"/>
      <path fill="none" d="M288.7032 276.9021 L402.0547 276.9021 L402.0547 332.7908 L288.7032 332.7908 Z" clip-path="url(#clipPath2)" stroke="black"/>
    </g>
    <g font-family="sans-serif" transform="matrix(1,0,0,1,13,4)">
      <text x="308.6289" xml:space="preserve" y="295.3044" clip-path="url(#clipPath2)" stroke="none">Schemalagd,</text>
      <text x="295.7325" xml:space="preserve" y="309.2673" clip-path="url(#clipPath2)" stroke="none">kontinueligt eller</text>
      <text x="312.2559" xml:space="preserve" y="323.2302" clip-path="url(#clipPath2)" stroke="none">efter behov</text>
    </g>
    <g stroke-linecap="butt" transform="matrix(1,0,0,1,13,4)" stroke-miterlimit="1.45">
      <path fill="none" d="M273.7032 67.3515 L273.7032 80 L130.3516 80 L130.3516 89.3805" clip-path="url(#clipPath2)"/>
    </g>
    <g stroke-linecap="butt" transform="matrix(1,0,0,1,13,4)" stroke-miterlimit="1.45">
      <path d="M130.3516 97.3805 L135.3516 85.3805 L130.3516 88.3805 L125.3516 85.3805 Z" clip-path="url(#clipPath2)" stroke="none"/>
      <path fill="none" d="M273.7032 67.3515 L273.7032 80 L417.0547 80 L417.0547 89.3805" clip-path="url(#clipPath2)"/>
      <path d="M417.0547 97.3805 L422.0547 85.3805 L417.0547 88.3805 L412.0547 85.3805 Z" clip-path="url(#clipPath2)" stroke="none"/>
      <path fill="none" d="M417.0547 153.2478 L417.0547 169 L345.3789 169 L345.3789 175.2094" clip-path="url(#clipPath2)"/>
      <path d="M345.3789 183.2094 L350.3789 171.2094 L345.3789 174.2094 L340.3789 171.2094 Z" clip-path="url(#clipPath2)" stroke="none"/>
      <path fill="none" d="M417.0547 153.2478 L417.0547 169 L488.7305 169 L488.7305 175.2094" clip-path="url(#clipPath2)"/>
      <path d="M488.7305 183.2094 L493.7305 171.2094 L488.7305 174.2094 L483.7305 171.2094 Z" clip-path="url(#clipPath2)" stroke="none"/>
      <path fill="none" d="M130.3516 153.2592 L130.3516 211.1753 L58.6758 211.1753 L58.6758 268.9006" clip-path="url(#clipPath2)"/>
      <path d="M58.6758 276.9006 L63.6758 264.9006 L58.6758 267.9006 L53.6758 264.9006 Z" clip-path="url(#clipPath2)" stroke="none"/>
      <path fill="none" d="M130.3516 153.2592 L130.3516 211.1753 L202.0274 211.1753 L202.0274 268.9006" clip-path="url(#clipPath2)"/>
      <path d="M202.0274 276.9006 L207.0274 264.9006 L202.0274 267.9006 L197.0274 264.9006 Z" clip-path="url(#clipPath2)" stroke="none"/>
      <path fill="none" d="M488.7305 239.1211 L488.7305 268.8939" clip-path="url(#clipPath2)"/>
      <path d="M488.7305 276.8939 L493.7305 264.8939 L488.7305 267.8939 L483.7305 264.8939 Z" clip-path="url(#clipPath2)" stroke="none"/>
      <path fill="none" d="M345.3789 239.1211 L345.3789 268.8939" clip-path="url(#clipPath2)"/>
      <path d="M345.3789 276.8939 L350.3789 264.8939 L345.3789 267.8939 L340.3789 264.8939 Z" clip-path="url(#clipPath2)" stroke="none"/>
    </g>
  </g>
</svg>
